<svg xmlns="http://www.w3.org/2000/svg" width="162" height="36" fill="none" viewBox="0 0 162 36">
  <path fill="#fff" d="M4.358 16.759A1.939 1.939 0 0 0 2.43 14.81 1.94 1.94 0 0 0 .5 16.759v2.482a1.94 1.94 0 0 0 1.93 1.949 1.939 1.939 0 0 0 1.928-1.949V16.76ZM11.5 2.549A1.939 1.939 0 0 0 9.57.6a1.938 1.938 0 0 0-1.928 1.949V33.45c0 1.077.863 1.949 1.929 1.949A1.939 1.939 0 0 0 11.5 33.45V2.55Zm7.141 8.12a1.939 1.939 0 0 0-1.929-1.949 1.939 1.939 0 0 0-1.929 1.949V25.33a1.94 1.94 0 0 0 1.93 1.949 1.94 1.94 0 0 0 1.928-1.949V10.67Zm7.147 2.03a1.939 1.939 0 0 0-1.929-1.949 1.94 1.94 0 0 0-1.929 1.949V23.3a1.94 1.94 0 0 0 1.93 1.949 1.938 1.938 0 0 0 1.928-1.949V12.7Zm7.142 0A1.939 1.939 0 0 0 31 10.75a1.939 1.939 0 0 0-1.928 1.949V23.3c0 1.077.863 1.949 1.929 1.949A1.939 1.939 0 0 0 32.93 23.3V12.7Zm7.142 2.03a1.939 1.939 0 0 0-1.93-1.949 1.94 1.94 0 0 0-1.929 1.949v6.542a1.94 1.94 0 0 0 1.93 1.949 1.938 1.938 0 0 0 1.928-1.949V14.73Zm7.141-10.15a1.939 1.939 0 0 0-1.93-1.949 1.94 1.94 0 0 0-1.928 1.949V31.42c0 1.077.863 1.949 1.929 1.949a1.939 1.939 0 0 0 1.929-1.949V4.58Zm7.147 8.12a1.939 1.939 0 0 0-1.929-1.949 1.94 1.94 0 0 0-1.929 1.949V23.3a1.94 1.94 0 0 0 1.93 1.949A1.938 1.938 0 0 0 54.36 23.3V12.7Zm7.142 0a1.939 1.939 0 0 0-1.93-1.949 1.939 1.939 0 0 0-1.928 1.949V23.3c0 1.077.863 1.949 1.929 1.949a1.939 1.939 0 0 0 1.929-1.949V12.7Zm7.141-2.03a1.94 1.94 0 0 0-1.929-1.949 1.939 1.939 0 0 0-1.929 1.949V25.33a1.94 1.94 0 0 0 1.93 1.949 1.939 1.939 0 0 0 1.928-1.949V10.67Zm7.142-4.06a1.94 1.94 0 0 0-1.93-1.949 1.938 1.938 0 0 0-1.928 1.949V29.39c0 1.077.863 1.949 1.929 1.949a1.939 1.939 0 0 0 1.929-1.949V6.61Zm7.141-4.06A1.94 1.94 0 0 0 80.997.6a1.939 1.939 0 0 0-1.929 1.949V33.45a1.94 1.94 0 0 0 1.93 1.949 1.94 1.94 0 0 0 1.928-1.949V2.55Zm7.147 12.18a1.939 1.939 0 0 0-1.929-1.949 1.94 1.94 0 0 0-1.929 1.949v6.542a1.94 1.94 0 0 0 1.93 1.949 1.938 1.938 0 0 0 1.928-1.949V14.73Zm7.142 0a1.939 1.939 0 0 0-1.93-1.949 1.939 1.939 0 0 0-1.928 1.949v6.542c0 1.076.863 1.949 1.929 1.949a1.939 1.939 0 0 0 1.929-1.949V14.73Zm7.141-12.18A1.939 1.939 0 0 0 102.427.6a1.94 1.94 0 0 0-1.929 1.949V33.45a1.94 1.94 0 0 0 1.929 1.949 1.939 1.939 0 0 0 1.929-1.949V2.55Zm7.142 12.18a1.94 1.94 0 0 0-1.929-1.949 1.939 1.939 0 0 0-1.929 1.949v6.542c0 1.076.863 1.949 1.929 1.949a1.94 1.94 0 0 0 1.929-1.949V14.73Zm7.147 0a1.939 1.939 0 0 0-1.929-1.949 1.94 1.94 0 0 0-1.929 1.949v6.542a1.94 1.94 0 0 0 1.929 1.949 1.939 1.939 0 0 0 1.929-1.949V14.73Zm7.142-12.18A1.94 1.94 0 0 0 123.858.6a1.94 1.94 0 0 0-1.93 1.949V33.45a1.94 1.94 0 0 0 1.93 1.949 1.94 1.94 0 0 0 1.929-1.949V2.55Zm7.141 2.03a1.939 1.939 0 0 0-1.929-1.949 1.94 1.94 0 0 0-1.929 1.949V31.42a1.94 1.94 0 0 0 1.929 1.949 1.939 1.939 0 0 0 1.929-1.949V4.58Zm7.142 8.12a1.94 1.94 0 0 0-1.929-1.949 1.94 1.94 0 0 0-1.93 1.949V23.3a1.94 1.94 0 0 0 1.93 1.949 1.94 1.94 0 0 0 1.929-1.949V12.7Zm7.141-4.06a1.939 1.939 0 0 0-1.929-1.949 1.94 1.94 0 0 0-1.929 1.949V27.36a1.94 1.94 0 0 0 1.929 1.949 1.939 1.939 0 0 0 1.929-1.949V8.64Zm7.147 0a1.939 1.939 0 0 0-1.929-1.949 1.94 1.94 0 0 0-1.929 1.949V27.36a1.94 1.94 0 0 0 1.929 1.949 1.939 1.939 0 0 0 1.929-1.949V8.64Zm7.142 8.12a1.94 1.94 0 0 0-1.929-1.949 1.939 1.939 0 0 0-1.929 1.949v2.482c0 1.076.863 1.949 1.929 1.949a1.94 1.94 0 0 0 1.929-1.949V16.76Z"/>
</svg>
