<svg id="Layer_1" data-name="Layer 1" xmlns="http://www.w3.org/2000/svg" viewBox="0 0 639.03 136.94"><defs><style>.cls-1{fill:#fff;}</style></defs><path class="cls-1" d="M7.66,55.92h0a7.65,7.65,0,0,1,7.65,7.66v9.77A7.65,7.65,0,0,1,7.66,81h0A7.66,7.66,0,0,1,0,73.35V63.58A7.66,7.66,0,0,1,7.66,55.92Z"/><path class="cls-1" d="M36,55.92h0a7.66,7.66,0,0,1,7.66,7.66v9.77A7.66,7.66,0,0,1,36,81h0a7.65,7.65,0,0,1-7.65-7.67V63.58A7.65,7.65,0,0,1,36,55.92Z"/><rect class="cls-1" x="56.69" y="55.92" width="15.31" height="25.1" rx="7.66"/><path class="cls-1" d="M92.72,39.94h0a7.65,7.65,0,0,1,7.65,7.67V89.33A7.66,7.66,0,0,1,92.72,97h0a7.67,7.67,0,0,1-7.66-7.67V47.61A7.66,7.66,0,0,1,92.72,39.94Z"/><rect class="cls-1" x="113.41" y="47.93" width="15.31" height="41.08" rx="7.66"/><rect class="cls-1" x="141.75" y="47.93" width="15.31" height="41.08" rx="7.66"/><rect class="cls-1" x="170.1" y="7.99" width="15.31" height="120.96" rx="7.66"/><path class="cls-1" d="M206.12,8h0a7.66,7.66,0,0,1,7.66,7.67V121.28a7.67,7.67,0,0,1-7.66,7.67h0a7.66,7.66,0,0,1-7.65-7.67V15.66A7.65,7.65,0,0,1,206.12,8Z"/><path class="cls-1" d="M234.47,8h0a7.65,7.65,0,0,1,7.65,7.67V121.28a7.66,7.66,0,0,1-7.65,7.67h0a7.67,7.67,0,0,1-7.66-7.67V15.66A7.66,7.66,0,0,1,234.47,8Z"/><rect class="cls-1" x="255.16" y="31.95" width="15.31" height="73.03" rx="7.66"/><rect class="cls-1" x="283.5" y="39.94" width="15.31" height="57.06" rx="7.66"/><rect class="cls-1" x="311.85" width="15.31" height="136.94" rx="7.66"/><rect class="cls-1" x="340.22" width="15.31" height="136.94" rx="7.66"/><path class="cls-1" d="M376.22,55.92h0a7.66,7.66,0,0,1,7.66,7.66v9.77A7.66,7.66,0,0,1,376.22,81h0a7.66,7.66,0,0,1-7.66-7.67V63.58A7.66,7.66,0,0,1,376.22,55.92Z"/><path class="cls-1" d="M404.56,39.94h0a7.66,7.66,0,0,1,7.66,7.67V89.33A7.67,7.67,0,0,1,404.56,97h0a7.67,7.67,0,0,1-7.65-7.67V47.61A7.66,7.66,0,0,1,404.56,39.94Z"/><path class="cls-1" d="M432.91,55.92h0a7.66,7.66,0,0,1,7.66,7.66v9.77A7.66,7.66,0,0,1,432.91,81h0a7.66,7.66,0,0,1-7.66-7.67V63.58A7.66,7.66,0,0,1,432.91,55.92Z"/><path class="cls-1" d="M461.28,32h0a7.66,7.66,0,0,1,7.66,7.67v57.7a7.66,7.66,0,0,1-7.66,7.66h0a7.66,7.66,0,0,1-7.66-7.66V39.62A7.66,7.66,0,0,1,461.28,32Z"/><path class="cls-1" d="M489.62,16h0a7.66,7.66,0,0,1,7.66,7.66v89.65a7.66,7.66,0,0,1-7.66,7.67h0a7.66,7.66,0,0,1-7.65-7.67V23.64A7.66,7.66,0,0,1,489.62,16Z"/><path class="cls-1" d="M518,0h0a7.66,7.66,0,0,1,7.66,7.67v121.6a7.67,7.67,0,0,1-7.66,7.67h0a7.67,7.67,0,0,1-7.66-7.67V7.67A7.66,7.66,0,0,1,518,0Z"/><path class="cls-1" d="M546.32,55.92h0A7.66,7.66,0,0,1,554,63.58v9.77A7.66,7.66,0,0,1,546.32,81h0a7.66,7.66,0,0,1-7.66-7.67V63.58A7.66,7.66,0,0,1,546.32,55.92Z"/><path class="cls-1" d="M574.66,8h0a7.66,7.66,0,0,1,7.66,7.67V121.28a7.67,7.67,0,0,1-7.66,7.67h0a7.67,7.67,0,0,1-7.66-7.67V15.66A7.66,7.66,0,0,1,574.66,8Z"/><path class="cls-1" d="M603,55.92h0a7.66,7.66,0,0,1,7.66,7.66v9.77A7.66,7.66,0,0,1,603,81h0a7.66,7.66,0,0,1-7.66-7.67V63.58A7.66,7.66,0,0,1,603,55.92Z"/><path class="cls-1" d="M631.38,55.92h0A7.66,7.66,0,0,1,639,63.58v9.77A7.66,7.66,0,0,1,631.37,81h0a7.66,7.66,0,0,1-7.66-7.67V63.58A7.66,7.66,0,0,1,631.38,55.92Z"/></svg>